<mxfile host="app.diagrams.net" modified="2023-09-29T21:38:52.169Z" agent="Mozilla/5.0 (Macintosh; Intel Mac OS X 10_15_7) AppleWebKit/537.36 (KHTML, like Gecko) Chrome/117.0.0.0 Safari/537.36" version="21.8.2" etag="j_Dy5j347zZN4v-4C1As" type="device">
  <diagram id="VWDEmQn8cAfBrGKWbOLW" name="Página-1">
    <mxGraphModel dx="1781" dy="642" grid="1" gridSize="10" guides="1" tooltips="1" connect="1" arrows="1" fold="1" page="1" pageScale="1" pageWidth="827" pageHeight="1169" math="0" shadow="0">
      <root>
        <mxCell id="0" />
        <mxCell id="1" parent="0" />
        <mxCell id="n27SO8hKBqy7ZoOVpC5h-3" value="" style="ellipse;html=1;shape=startState;fillColor=#000000;strokeColor=#ff0000;" vertex="1" parent="1">
          <mxGeometry x="309" y="110" width="30" height="30" as="geometry" />
        </mxCell>
        <mxCell id="n27SO8hKBqy7ZoOVpC5h-4" value="" style="edgeStyle=orthogonalEdgeStyle;html=1;verticalAlign=bottom;endArrow=open;endSize=8;strokeColor=#ff0000;rounded=0;entryX=0.5;entryY=0;entryDx=0;entryDy=0;" edge="1" source="n27SO8hKBqy7ZoOVpC5h-3" parent="1" target="n27SO8hKBqy7ZoOVpC5h-6">
          <mxGeometry relative="1" as="geometry">
            <mxPoint x="324" y="200" as="targetPoint" />
          </mxGeometry>
        </mxCell>
        <mxCell id="n27SO8hKBqy7ZoOVpC5h-5" value="TOMAR CAFÉ" style="text;html=1;strokeColor=none;fillColor=none;align=center;verticalAlign=middle;whiteSpace=wrap;rounded=0;" vertex="1" parent="1">
          <mxGeometry x="355" y="50" width="90" height="30" as="geometry" />
        </mxCell>
        <mxCell id="n27SO8hKBqy7ZoOVpC5h-10" value="" style="edgeStyle=orthogonalEdgeStyle;rounded=0;orthogonalLoop=1;jettySize=auto;html=1;" edge="1" parent="1" source="n27SO8hKBqy7ZoOVpC5h-6" target="n27SO8hKBqy7ZoOVpC5h-9">
          <mxGeometry relative="1" as="geometry" />
        </mxCell>
        <mxCell id="n27SO8hKBqy7ZoOVpC5h-6" value="Verificar se tem pó de café" style="rounded=1;whiteSpace=wrap;html=1;" vertex="1" parent="1">
          <mxGeometry x="264" y="170" width="120" height="60" as="geometry" />
        </mxCell>
        <mxCell id="n27SO8hKBqy7ZoOVpC5h-18" value="" style="edgeStyle=orthogonalEdgeStyle;rounded=0;orthogonalLoop=1;jettySize=auto;html=1;" edge="1" parent="1" source="n27SO8hKBqy7ZoOVpC5h-9" target="n27SO8hKBqy7ZoOVpC5h-17">
          <mxGeometry relative="1" as="geometry" />
        </mxCell>
        <mxCell id="n27SO8hKBqy7ZoOVpC5h-54" value="" style="edgeStyle=orthogonalEdgeStyle;rounded=0;orthogonalLoop=1;jettySize=auto;html=1;" edge="1" parent="1" source="n27SO8hKBqy7ZoOVpC5h-9" target="n27SO8hKBqy7ZoOVpC5h-53">
          <mxGeometry relative="1" as="geometry" />
        </mxCell>
        <mxCell id="n27SO8hKBqy7ZoOVpC5h-9" value="Tem café?" style="rhombus;whiteSpace=wrap;html=1;rounded=1;" vertex="1" parent="1">
          <mxGeometry x="284" y="270" width="80" height="80" as="geometry" />
        </mxCell>
        <mxCell id="n27SO8hKBqy7ZoOVpC5h-17" value="Iniciar o preparo do café" style="whiteSpace=wrap;html=1;rounded=1;" vertex="1" parent="1">
          <mxGeometry x="264" y="380" width="120" height="60" as="geometry" />
        </mxCell>
        <mxCell id="n27SO8hKBqy7ZoOVpC5h-19" value="Sim" style="text;html=1;strokeColor=none;fillColor=none;align=center;verticalAlign=middle;whiteSpace=wrap;rounded=0;" vertex="1" parent="1">
          <mxGeometry x="319" y="350" width="60" height="30" as="geometry" />
        </mxCell>
        <mxCell id="n27SO8hKBqy7ZoOVpC5h-25" style="edgeStyle=orthogonalEdgeStyle;rounded=0;orthogonalLoop=1;jettySize=auto;html=1;entryX=0.5;entryY=0;entryDx=0;entryDy=0;" edge="1" parent="1" source="n27SO8hKBqy7ZoOVpC5h-20" target="n27SO8hKBqy7ZoOVpC5h-23">
          <mxGeometry relative="1" as="geometry" />
        </mxCell>
        <mxCell id="n27SO8hKBqy7ZoOVpC5h-20" value="" style="verticalLabelPosition=bottom;verticalAlign=top;html=1;shape=mxgraph.basic.rect;fillColor2=none;strokeWidth=1;size=20;indent=5;fillColor=#000000;" vertex="1" parent="1">
          <mxGeometry x="299" y="480" width="50" height="10" as="geometry" />
        </mxCell>
        <mxCell id="n27SO8hKBqy7ZoOVpC5h-21" style="edgeStyle=orthogonalEdgeStyle;rounded=0;orthogonalLoop=1;jettySize=auto;html=1;entryX=0.5;entryY=0;entryDx=0;entryDy=0;entryPerimeter=0;" edge="1" parent="1" source="n27SO8hKBqy7ZoOVpC5h-17" target="n27SO8hKBqy7ZoOVpC5h-20">
          <mxGeometry relative="1" as="geometry" />
        </mxCell>
        <mxCell id="n27SO8hKBqy7ZoOVpC5h-22" value="Colocar pó de café no filtro" style="whiteSpace=wrap;html=1;rounded=1;" vertex="1" parent="1">
          <mxGeometry x="84" y="555" width="120" height="60" as="geometry" />
        </mxCell>
        <mxCell id="n27SO8hKBqy7ZoOVpC5h-23" value="Adicionar água na máquina" style="whiteSpace=wrap;html=1;rounded=1;" vertex="1" parent="1">
          <mxGeometry x="264" y="600" width="120" height="60" as="geometry" />
        </mxCell>
        <mxCell id="n27SO8hKBqy7ZoOVpC5h-24" value="Pegar uma xícara para beber café" style="whiteSpace=wrap;html=1;rounded=1;" vertex="1" parent="1">
          <mxGeometry x="394" y="670" width="120" height="60" as="geometry" />
        </mxCell>
        <mxCell id="n27SO8hKBqy7ZoOVpC5h-27" value="" style="endArrow=classic;html=1;rounded=0;exitX=0.52;exitY=0.95;exitDx=0;exitDy=0;exitPerimeter=0;entryX=0.5;entryY=0;entryDx=0;entryDy=0;" edge="1" parent="1" source="n27SO8hKBqy7ZoOVpC5h-20" target="n27SO8hKBqy7ZoOVpC5h-22">
          <mxGeometry width="50" height="50" relative="1" as="geometry">
            <mxPoint x="314" y="750" as="sourcePoint" />
            <mxPoint x="364" y="700" as="targetPoint" />
          </mxGeometry>
        </mxCell>
        <mxCell id="n27SO8hKBqy7ZoOVpC5h-28" value="" style="endArrow=classic;html=1;rounded=0;exitX=0.5;exitY=0.9;exitDx=0;exitDy=0;exitPerimeter=0;entryX=0.5;entryY=0;entryDx=0;entryDy=0;" edge="1" parent="1" source="n27SO8hKBqy7ZoOVpC5h-20" target="n27SO8hKBqy7ZoOVpC5h-24">
          <mxGeometry width="50" height="50" relative="1" as="geometry">
            <mxPoint x="335" y="580" as="sourcePoint" />
            <mxPoint x="514" y="600" as="targetPoint" />
          </mxGeometry>
        </mxCell>
        <mxCell id="n27SO8hKBqy7ZoOVpC5h-74" style="edgeStyle=orthogonalEdgeStyle;rounded=0;orthogonalLoop=1;jettySize=auto;html=1;entryX=0.5;entryY=0;entryDx=0;entryDy=0;" edge="1" parent="1" source="n27SO8hKBqy7ZoOVpC5h-29" target="n27SO8hKBqy7ZoOVpC5h-39">
          <mxGeometry relative="1" as="geometry" />
        </mxCell>
        <mxCell id="n27SO8hKBqy7ZoOVpC5h-29" value="" style="verticalLabelPosition=bottom;verticalAlign=top;html=1;shape=mxgraph.basic.rect;fillColor2=none;strokeWidth=1;size=20;indent=5;fillColor=#000000;" vertex="1" parent="1">
          <mxGeometry x="299" y="780" width="50" height="10" as="geometry" />
        </mxCell>
        <mxCell id="n27SO8hKBqy7ZoOVpC5h-30" style="edgeStyle=orthogonalEdgeStyle;rounded=0;orthogonalLoop=1;jettySize=auto;html=1;entryX=0.5;entryY=0;entryDx=0;entryDy=0;entryPerimeter=0;" edge="1" parent="1" source="n27SO8hKBqy7ZoOVpC5h-23" target="n27SO8hKBqy7ZoOVpC5h-29">
          <mxGeometry relative="1" as="geometry">
            <mxPoint x="314" y="740" as="targetPoint" />
          </mxGeometry>
        </mxCell>
        <mxCell id="n27SO8hKBqy7ZoOVpC5h-31" value="" style="endArrow=classic;html=1;rounded=0;exitX=0.5;exitY=1;exitDx=0;exitDy=0;entryX=0.5;entryY=0;entryDx=0;entryDy=0;" edge="1" parent="1" source="n27SO8hKBqy7ZoOVpC5h-22" target="n27SO8hKBqy7ZoOVpC5h-43">
          <mxGeometry width="50" height="50" relative="1" as="geometry">
            <mxPoint x="314" y="750" as="sourcePoint" />
            <mxPoint x="144" y="720" as="targetPoint" />
          </mxGeometry>
        </mxCell>
        <mxCell id="n27SO8hKBqy7ZoOVpC5h-32" value="" style="endArrow=classic;html=1;rounded=0;exitX=0.5;exitY=1;exitDx=0;exitDy=0;entryX=0.507;entryY=0.133;entryDx=0;entryDy=0;entryPerimeter=0;" edge="1" parent="1" source="n27SO8hKBqy7ZoOVpC5h-24" target="n27SO8hKBqy7ZoOVpC5h-47">
          <mxGeometry width="50" height="50" relative="1" as="geometry">
            <mxPoint x="314" y="940" as="sourcePoint" />
            <mxPoint x="504" y="950" as="targetPoint" />
          </mxGeometry>
        </mxCell>
        <mxCell id="n27SO8hKBqy7ZoOVpC5h-42" value="" style="edgeStyle=orthogonalEdgeStyle;rounded=0;orthogonalLoop=1;jettySize=auto;html=1;" edge="1" parent="1" source="n27SO8hKBqy7ZoOVpC5h-39" target="n27SO8hKBqy7ZoOVpC5h-41">
          <mxGeometry relative="1" as="geometry" />
        </mxCell>
        <mxCell id="n27SO8hKBqy7ZoOVpC5h-39" value="Ligar a máquina" style="whiteSpace=wrap;html=1;rounded=1;" vertex="1" parent="1">
          <mxGeometry x="264" y="830" width="120" height="60" as="geometry" />
        </mxCell>
        <mxCell id="n27SO8hKBqy7ZoOVpC5h-41" value="Filtrar o café" style="whiteSpace=wrap;html=1;rounded=1;" vertex="1" parent="1">
          <mxGeometry x="264" y="920" width="120" height="60" as="geometry" />
        </mxCell>
        <mxCell id="n27SO8hKBqy7ZoOVpC5h-43" value="Colocar filtro na máquina" style="whiteSpace=wrap;html=1;rounded=1;" vertex="1" parent="1">
          <mxGeometry x="84" y="650" width="120" height="60" as="geometry" />
        </mxCell>
        <mxCell id="n27SO8hKBqy7ZoOVpC5h-45" value="" style="endArrow=classic;html=1;rounded=0;exitX=0.5;exitY=1;exitDx=0;exitDy=0;entryX=0.44;entryY=-0.2;entryDx=0;entryDy=0;entryPerimeter=0;" edge="1" parent="1" source="n27SO8hKBqy7ZoOVpC5h-43" target="n27SO8hKBqy7ZoOVpC5h-29">
          <mxGeometry width="50" height="50" relative="1" as="geometry">
            <mxPoint x="184" y="860" as="sourcePoint" />
            <mxPoint x="234" y="810" as="targetPoint" />
          </mxGeometry>
        </mxCell>
        <mxCell id="n27SO8hKBqy7ZoOVpC5h-69" style="edgeStyle=orthogonalEdgeStyle;rounded=0;orthogonalLoop=1;jettySize=auto;html=1;entryX=0.5;entryY=1;entryDx=0;entryDy=0;" edge="1" parent="1" source="n27SO8hKBqy7ZoOVpC5h-46" target="n27SO8hKBqy7ZoOVpC5h-63">
          <mxGeometry relative="1" as="geometry" />
        </mxCell>
        <mxCell id="n27SO8hKBqy7ZoOVpC5h-46" value="Colocar o café na xícara" style="whiteSpace=wrap;html=1;rounded=1;" vertex="1" parent="1">
          <mxGeometry x="394" y="1070" width="120" height="60" as="geometry" />
        </mxCell>
        <mxCell id="n27SO8hKBqy7ZoOVpC5h-49" style="edgeStyle=orthogonalEdgeStyle;rounded=0;orthogonalLoop=1;jettySize=auto;html=1;entryX=0.5;entryY=0;entryDx=0;entryDy=0;" edge="1" parent="1" source="n27SO8hKBqy7ZoOVpC5h-47" target="n27SO8hKBqy7ZoOVpC5h-46">
          <mxGeometry relative="1" as="geometry" />
        </mxCell>
        <mxCell id="n27SO8hKBqy7ZoOVpC5h-47" value="" style="verticalLabelPosition=bottom;verticalAlign=top;html=1;shape=mxgraph.basic.rect;fillColor2=none;strokeWidth=1;size=20;indent=5;fillColor=#000000;" vertex="1" parent="1">
          <mxGeometry x="429" y="1030" width="50" height="10" as="geometry" />
        </mxCell>
        <mxCell id="n27SO8hKBqy7ZoOVpC5h-48" value="" style="endArrow=classic;html=1;rounded=0;exitX=0.5;exitY=1;exitDx=0;exitDy=0;entryX=0.52;entryY=-0.133;entryDx=0;entryDy=0;entryPerimeter=0;" edge="1" parent="1" source="n27SO8hKBqy7ZoOVpC5h-41" target="n27SO8hKBqy7ZoOVpC5h-47">
          <mxGeometry width="50" height="50" relative="1" as="geometry">
            <mxPoint x="144" y="1130" as="sourcePoint" />
            <mxPoint x="194" y="1080" as="targetPoint" />
          </mxGeometry>
        </mxCell>
        <mxCell id="n27SO8hKBqy7ZoOVpC5h-58" value="" style="edgeStyle=orthogonalEdgeStyle;rounded=0;orthogonalLoop=1;jettySize=auto;html=1;" edge="1" parent="1" source="n27SO8hKBqy7ZoOVpC5h-53" target="n27SO8hKBqy7ZoOVpC5h-57">
          <mxGeometry relative="1" as="geometry" />
        </mxCell>
        <mxCell id="n27SO8hKBqy7ZoOVpC5h-53" value="Procurar coca-cola" style="whiteSpace=wrap;html=1;rounded=1;" vertex="1" parent="1">
          <mxGeometry x="520" y="280" width="120" height="60" as="geometry" />
        </mxCell>
        <mxCell id="n27SO8hKBqy7ZoOVpC5h-60" value="" style="edgeStyle=orthogonalEdgeStyle;rounded=0;orthogonalLoop=1;jettySize=auto;html=1;" edge="1" parent="1" source="n27SO8hKBqy7ZoOVpC5h-57" target="n27SO8hKBqy7ZoOVpC5h-59">
          <mxGeometry relative="1" as="geometry" />
        </mxCell>
        <mxCell id="n27SO8hKBqy7ZoOVpC5h-67" style="edgeStyle=orthogonalEdgeStyle;rounded=0;orthogonalLoop=1;jettySize=auto;html=1;entryX=0;entryY=0.5;entryDx=0;entryDy=0;" edge="1" parent="1" source="n27SO8hKBqy7ZoOVpC5h-57" target="n27SO8hKBqy7ZoOVpC5h-63">
          <mxGeometry relative="1" as="geometry">
            <Array as="points">
              <mxPoint x="580" y="710" />
            </Array>
          </mxGeometry>
        </mxCell>
        <mxCell id="n27SO8hKBqy7ZoOVpC5h-57" value="Encontrou?" style="rhombus;whiteSpace=wrap;html=1;rounded=1;" vertex="1" parent="1">
          <mxGeometry x="540" y="445" width="80" height="80" as="geometry" />
        </mxCell>
        <mxCell id="n27SO8hKBqy7ZoOVpC5h-68" style="edgeStyle=orthogonalEdgeStyle;rounded=0;orthogonalLoop=1;jettySize=auto;html=1;entryX=0.5;entryY=0;entryDx=0;entryDy=0;" edge="1" parent="1" source="n27SO8hKBqy7ZoOVpC5h-59" target="n27SO8hKBqy7ZoOVpC5h-63">
          <mxGeometry relative="1" as="geometry" />
        </mxCell>
        <mxCell id="n27SO8hKBqy7ZoOVpC5h-59" value="Beber coca-cola" style="whiteSpace=wrap;html=1;rounded=1;" vertex="1" parent="1">
          <mxGeometry x="670" y="455" width="120" height="60" as="geometry" />
        </mxCell>
        <mxCell id="n27SO8hKBqy7ZoOVpC5h-63" value="" style="ellipse;html=1;shape=endState;fillColor=#000000;strokeColor=#ff0000;" vertex="1" parent="1">
          <mxGeometry x="715" y="695" width="30" height="30" as="geometry" />
        </mxCell>
        <mxCell id="n27SO8hKBqy7ZoOVpC5h-70" value="Sim" style="text;html=1;strokeColor=none;fillColor=none;align=center;verticalAlign=middle;whiteSpace=wrap;rounded=0;" vertex="1" parent="1">
          <mxGeometry x="610" y="455" width="60" height="30" as="geometry" />
        </mxCell>
        <mxCell id="n27SO8hKBqy7ZoOVpC5h-71" value="Não" style="text;html=1;strokeColor=none;fillColor=none;align=center;verticalAlign=middle;whiteSpace=wrap;rounded=0;" vertex="1" parent="1">
          <mxGeometry x="570" y="525" width="60" height="30" as="geometry" />
        </mxCell>
        <mxCell id="n27SO8hKBqy7ZoOVpC5h-73" value="Não" style="text;html=1;strokeColor=none;fillColor=none;align=center;verticalAlign=middle;whiteSpace=wrap;rounded=0;" vertex="1" parent="1">
          <mxGeometry x="359" y="280" width="60" height="30" as="geometry" />
        </mxCell>
        <mxCell id="n27SO8hKBqy7ZoOVpC5h-77" value="SINISTRO DE VEÍCULO" style="text;html=1;strokeColor=none;fillColor=none;align=center;verticalAlign=middle;whiteSpace=wrap;rounded=0;" vertex="1" parent="1">
          <mxGeometry x="332.5" y="1180" width="135" height="30" as="geometry" />
        </mxCell>
        <mxCell id="n27SO8hKBqy7ZoOVpC5h-112" value="SISTEMA DE LAUDO DE CARDIOLOGIA" style="text;html=1;strokeColor=none;fillColor=none;align=center;verticalAlign=middle;whiteSpace=wrap;rounded=0;" vertex="1" parent="1">
          <mxGeometry x="1328" y="40" width="134" height="30" as="geometry" />
        </mxCell>
        <mxCell id="n27SO8hKBqy7ZoOVpC5h-116" value="SISTEMA DE LAUDO DE CARDIOLOGIA" style="swimlane;childLayout=stackLayout;resizeParent=1;resizeParentMax=0;startSize=20;html=1;" vertex="1" parent="1">
          <mxGeometry x="990" y="90" width="810" height="750" as="geometry" />
        </mxCell>
        <mxCell id="n27SO8hKBqy7ZoOVpC5h-117" value="Docente" style="swimlane;startSize=20;html=1;" vertex="1" parent="n27SO8hKBqy7ZoOVpC5h-116">
          <mxGeometry y="20" width="210" height="730" as="geometry" />
        </mxCell>
        <mxCell id="n27SO8hKBqy7ZoOVpC5h-120" value="" style="ellipse;html=1;shape=startState;fillColor=#000000;strokeColor=#ff0000;" vertex="1" parent="n27SO8hKBqy7ZoOVpC5h-117">
          <mxGeometry x="90" y="40" width="30" height="30" as="geometry" />
        </mxCell>
        <mxCell id="n27SO8hKBqy7ZoOVpC5h-121" value="" style="edgeStyle=orthogonalEdgeStyle;html=1;verticalAlign=bottom;endArrow=open;endSize=8;strokeColor=#ff0000;rounded=0;entryX=0.5;entryY=0;entryDx=0;entryDy=0;" edge="1" parent="n27SO8hKBqy7ZoOVpC5h-117" source="n27SO8hKBqy7ZoOVpC5h-120" target="n27SO8hKBqy7ZoOVpC5h-122">
          <mxGeometry relative="1" as="geometry">
            <mxPoint x="105" y="130" as="targetPoint" />
          </mxGeometry>
        </mxCell>
        <mxCell id="n27SO8hKBqy7ZoOVpC5h-174" style="edgeStyle=orthogonalEdgeStyle;rounded=0;orthogonalLoop=1;jettySize=auto;html=1;" edge="1" parent="n27SO8hKBqy7ZoOVpC5h-117" source="n27SO8hKBqy7ZoOVpC5h-122" target="n27SO8hKBqy7ZoOVpC5h-173">
          <mxGeometry relative="1" as="geometry" />
        </mxCell>
        <mxCell id="n27SO8hKBqy7ZoOVpC5h-122" value="Emitir um pedido de exame" style="rounded=1;whiteSpace=wrap;html=1;" vertex="1" parent="n27SO8hKBqy7ZoOVpC5h-117">
          <mxGeometry x="45" y="100" width="120" height="60" as="geometry" />
        </mxCell>
        <mxCell id="n27SO8hKBqy7ZoOVpC5h-173" value="&lt;font style=&quot;font-size: 12px;&quot;&gt;Solicitar cadastro do&lt;br&gt;paciente&lt;/font&gt;" style="html=1;shape=mxgraph.infographic.ribbonSimple;notch1=0;notch2=20;align=center;verticalAlign=middle;fontSize=14;fontStyle=0;fillColor=#FFFFFF;whiteSpace=wrap;" vertex="1" parent="n27SO8hKBqy7ZoOVpC5h-117">
          <mxGeometry x="25" y="210" width="160" height="40" as="geometry" />
        </mxCell>
        <mxCell id="n27SO8hKBqy7ZoOVpC5h-180" style="edgeStyle=orthogonalEdgeStyle;rounded=0;orthogonalLoop=1;jettySize=auto;html=1;" edge="1" parent="n27SO8hKBqy7ZoOVpC5h-117" source="n27SO8hKBqy7ZoOVpC5h-177" target="n27SO8hKBqy7ZoOVpC5h-179">
          <mxGeometry relative="1" as="geometry" />
        </mxCell>
        <mxCell id="n27SO8hKBqy7ZoOVpC5h-177" value="&lt;font style=&quot;font-size: 12px;&quot;&gt;Receber dados do&lt;br&gt;paciente&lt;/font&gt;" style="html=1;shape=mxgraph.infographic.ribbonSimple;notch1=20;notch2=0;align=center;verticalAlign=middle;fontSize=14;fontStyle=0;fillColor=#FFFFFF;flipH=0;spacingRight=0;spacingLeft=14;whiteSpace=wrap;" vertex="1" parent="n27SO8hKBqy7ZoOVpC5h-117">
          <mxGeometry x="20" y="310" width="170" height="40" as="geometry" />
        </mxCell>
        <mxCell id="n27SO8hKBqy7ZoOVpC5h-185" style="edgeStyle=orthogonalEdgeStyle;rounded=0;orthogonalLoop=1;jettySize=auto;html=1;" edge="1" parent="n27SO8hKBqy7ZoOVpC5h-117" source="n27SO8hKBqy7ZoOVpC5h-179" target="n27SO8hKBqy7ZoOVpC5h-184">
          <mxGeometry relative="1" as="geometry" />
        </mxCell>
        <mxCell id="n27SO8hKBqy7ZoOVpC5h-179" value="Solicitar emissão do&lt;br&gt;pedido" style="rounded=1;whiteSpace=wrap;html=1;" vertex="1" parent="n27SO8hKBqy7ZoOVpC5h-117">
          <mxGeometry x="45" y="380" width="120" height="60" as="geometry" />
        </mxCell>
        <mxCell id="n27SO8hKBqy7ZoOVpC5h-187" style="edgeStyle=orthogonalEdgeStyle;rounded=0;orthogonalLoop=1;jettySize=auto;html=1;entryX=0.5;entryY=0;entryDx=0;entryDy=0;" edge="1" parent="n27SO8hKBqy7ZoOVpC5h-117" source="n27SO8hKBqy7ZoOVpC5h-184" target="n27SO8hKBqy7ZoOVpC5h-186">
          <mxGeometry relative="1" as="geometry" />
        </mxCell>
        <mxCell id="n27SO8hKBqy7ZoOVpC5h-184" value="possui&lt;br&gt;outro&lt;br&gt;pedido?" style="rhombus;whiteSpace=wrap;html=1;rounded=1;" vertex="1" parent="n27SO8hKBqy7ZoOVpC5h-117">
          <mxGeometry x="65" y="460" width="80" height="80" as="geometry" />
        </mxCell>
        <mxCell id="n27SO8hKBqy7ZoOVpC5h-186" value="" style="ellipse;html=1;shape=endState;fillColor=#000000;strokeColor=#ff0000;" vertex="1" parent="n27SO8hKBqy7ZoOVpC5h-117">
          <mxGeometry x="90" y="570" width="30" height="30" as="geometry" />
        </mxCell>
        <mxCell id="n27SO8hKBqy7ZoOVpC5h-188" value="Sim" style="text;html=1;strokeColor=none;fillColor=none;align=center;verticalAlign=middle;whiteSpace=wrap;rounded=0;" vertex="1" parent="n27SO8hKBqy7ZoOVpC5h-117">
          <mxGeometry x="60" y="540" width="60" height="30" as="geometry" />
        </mxCell>
        <mxCell id="n27SO8hKBqy7ZoOVpC5h-201" style="edgeStyle=orthogonalEdgeStyle;rounded=0;orthogonalLoop=1;jettySize=auto;html=1;entryX=0.5;entryY=1;entryDx=0;entryDy=0;" edge="1" parent="n27SO8hKBqy7ZoOVpC5h-117" source="n27SO8hKBqy7ZoOVpC5h-199" target="n27SO8hKBqy7ZoOVpC5h-186">
          <mxGeometry relative="1" as="geometry" />
        </mxCell>
        <mxCell id="n27SO8hKBqy7ZoOVpC5h-199" value="Revisar laudo" style="whiteSpace=wrap;html=1;rounded=1;" vertex="1" parent="n27SO8hKBqy7ZoOVpC5h-117">
          <mxGeometry x="45" y="640" width="120" height="60" as="geometry" />
        </mxCell>
        <mxCell id="n27SO8hKBqy7ZoOVpC5h-118" value="Residente" style="swimlane;startSize=20;html=1;" vertex="1" parent="n27SO8hKBqy7ZoOVpC5h-116">
          <mxGeometry x="210" y="20" width="200" height="730" as="geometry" />
        </mxCell>
        <mxCell id="n27SO8hKBqy7ZoOVpC5h-198" value="" style="edgeStyle=orthogonalEdgeStyle;rounded=0;orthogonalLoop=1;jettySize=auto;html=1;" edge="1" parent="n27SO8hKBqy7ZoOVpC5h-118" source="n27SO8hKBqy7ZoOVpC5h-195" target="n27SO8hKBqy7ZoOVpC5h-197">
          <mxGeometry relative="1" as="geometry" />
        </mxCell>
        <mxCell id="n27SO8hKBqy7ZoOVpC5h-195" value="Realizar exame" style="whiteSpace=wrap;html=1;rounded=1;" vertex="1" parent="n27SO8hKBqy7ZoOVpC5h-118">
          <mxGeometry x="40" y="550" width="120" height="60" as="geometry" />
        </mxCell>
        <mxCell id="n27SO8hKBqy7ZoOVpC5h-197" value="Emitir laudo" style="whiteSpace=wrap;html=1;rounded=1;" vertex="1" parent="n27SO8hKBqy7ZoOVpC5h-118">
          <mxGeometry x="40" y="640" width="120" height="60" as="geometry" />
        </mxCell>
        <mxCell id="n27SO8hKBqy7ZoOVpC5h-176" style="edgeStyle=orthogonalEdgeStyle;rounded=0;orthogonalLoop=1;jettySize=auto;html=1;entryX=0;entryY=0.5;entryDx=0;entryDy=0;" edge="1" parent="n27SO8hKBqy7ZoOVpC5h-116" source="n27SO8hKBqy7ZoOVpC5h-173" target="n27SO8hKBqy7ZoOVpC5h-175">
          <mxGeometry relative="1" as="geometry">
            <mxPoint x="520" y="250" as="targetPoint" />
          </mxGeometry>
        </mxCell>
        <mxCell id="n27SO8hKBqy7ZoOVpC5h-167" value="Cadastro de pacientes" style="swimlane;startSize=20;html=1;" vertex="1" parent="n27SO8hKBqy7ZoOVpC5h-116">
          <mxGeometry x="410" y="20" width="200" height="730" as="geometry" />
        </mxCell>
        <mxCell id="n27SO8hKBqy7ZoOVpC5h-175" value="Sistema de cadastro de paciente" style="rounded=1;whiteSpace=wrap;html=1;" vertex="1" parent="n27SO8hKBqy7ZoOVpC5h-167">
          <mxGeometry x="40" y="200" width="120" height="60" as="geometry" />
        </mxCell>
        <mxCell id="n27SO8hKBqy7ZoOVpC5h-178" style="edgeStyle=orthogonalEdgeStyle;rounded=0;orthogonalLoop=1;jettySize=auto;html=1;entryX=1;entryY=0.5;entryDx=0;entryDy=0;entryPerimeter=0;" edge="1" parent="n27SO8hKBqy7ZoOVpC5h-116" source="n27SO8hKBqy7ZoOVpC5h-175" target="n27SO8hKBqy7ZoOVpC5h-177">
          <mxGeometry relative="1" as="geometry">
            <Array as="points">
              <mxPoint x="510" y="350" />
            </Array>
          </mxGeometry>
        </mxCell>
        <mxCell id="n27SO8hKBqy7ZoOVpC5h-181" value="Paciente" style="swimlane;startSize=20;html=1;" vertex="1" parent="n27SO8hKBqy7ZoOVpC5h-116">
          <mxGeometry x="610" y="20" width="200" height="730" as="geometry" />
        </mxCell>
        <mxCell id="n27SO8hKBqy7ZoOVpC5h-190" value="Receber pedido de exame impresso" style="whiteSpace=wrap;html=1;rounded=1;" vertex="1" parent="n27SO8hKBqy7ZoOVpC5h-181">
          <mxGeometry x="40" y="470" width="120" height="60" as="geometry" />
        </mxCell>
        <mxCell id="n27SO8hKBqy7ZoOVpC5h-191" value="" style="edgeStyle=orthogonalEdgeStyle;rounded=0;orthogonalLoop=1;jettySize=auto;html=1;" edge="1" parent="n27SO8hKBqy7ZoOVpC5h-116" source="n27SO8hKBqy7ZoOVpC5h-184" target="n27SO8hKBqy7ZoOVpC5h-190">
          <mxGeometry relative="1" as="geometry" />
        </mxCell>
        <mxCell id="n27SO8hKBqy7ZoOVpC5h-196" style="edgeStyle=orthogonalEdgeStyle;rounded=0;orthogonalLoop=1;jettySize=auto;html=1;entryX=1;entryY=0.5;entryDx=0;entryDy=0;" edge="1" parent="n27SO8hKBqy7ZoOVpC5h-116" source="n27SO8hKBqy7ZoOVpC5h-190" target="n27SO8hKBqy7ZoOVpC5h-195">
          <mxGeometry relative="1" as="geometry">
            <Array as="points">
              <mxPoint x="710" y="600" />
            </Array>
          </mxGeometry>
        </mxCell>
        <mxCell id="n27SO8hKBqy7ZoOVpC5h-200" value="" style="edgeStyle=orthogonalEdgeStyle;rounded=0;orthogonalLoop=1;jettySize=auto;html=1;" edge="1" parent="n27SO8hKBqy7ZoOVpC5h-116" source="n27SO8hKBqy7ZoOVpC5h-197" target="n27SO8hKBqy7ZoOVpC5h-199">
          <mxGeometry relative="1" as="geometry" />
        </mxCell>
        <mxCell id="n27SO8hKBqy7ZoOVpC5h-123" value="SINISTRO DE VEÍCULO" style="swimlane;childLayout=stackLayout;resizeParent=1;resizeParentMax=0;startSize=20;html=1;" vertex="1" parent="1">
          <mxGeometry x="-90.99999999999955" y="1240" width="1010" height="900" as="geometry" />
        </mxCell>
        <mxCell id="n27SO8hKBqy7ZoOVpC5h-124" value="Segurado" style="swimlane;startSize=20;html=1;" vertex="1" parent="n27SO8hKBqy7ZoOVpC5h-123">
          <mxGeometry y="20" width="210" height="880" as="geometry" />
        </mxCell>
        <mxCell id="n27SO8hKBqy7ZoOVpC5h-75" value="" style="ellipse;html=1;shape=startState;fillColor=#000000;strokeColor=#ff0000;" vertex="1" parent="n27SO8hKBqy7ZoOVpC5h-124">
          <mxGeometry x="88.99999999999955" y="30" width="30" height="30" as="geometry" />
        </mxCell>
        <mxCell id="n27SO8hKBqy7ZoOVpC5h-76" value="" style="edgeStyle=orthogonalEdgeStyle;html=1;verticalAlign=bottom;endArrow=open;endSize=8;strokeColor=#ff0000;rounded=0;entryX=0.5;entryY=0;entryDx=0;entryDy=0;" edge="1" parent="n27SO8hKBqy7ZoOVpC5h-124" source="n27SO8hKBqy7ZoOVpC5h-75">
          <mxGeometry relative="1" as="geometry">
            <mxPoint x="103.99999999999955" y="90" as="targetPoint" />
          </mxGeometry>
        </mxCell>
        <mxCell id="n27SO8hKBqy7ZoOVpC5h-79" value="Acionar a polícia para emissão do boletim de ocorrência" style="whiteSpace=wrap;html=1;rounded=1;" vertex="1" parent="n27SO8hKBqy7ZoOVpC5h-124">
          <mxGeometry x="47.499999999999545" y="90" width="120" height="60" as="geometry" />
        </mxCell>
        <mxCell id="n27SO8hKBqy7ZoOVpC5h-138" style="edgeStyle=orthogonalEdgeStyle;rounded=0;orthogonalLoop=1;jettySize=auto;html=1;entryX=0.5;entryY=0;entryDx=0;entryDy=0;" edge="1" parent="n27SO8hKBqy7ZoOVpC5h-124" source="n27SO8hKBqy7ZoOVpC5h-134" target="n27SO8hKBqy7ZoOVpC5h-136">
          <mxGeometry relative="1" as="geometry" />
        </mxCell>
        <mxCell id="n27SO8hKBqy7ZoOVpC5h-134" value="Notificar a&lt;br&gt;seguradora" style="whiteSpace=wrap;html=1;rounded=1;" vertex="1" parent="n27SO8hKBqy7ZoOVpC5h-124">
          <mxGeometry x="47.499999999999545" y="190" width="120" height="60" as="geometry" />
        </mxCell>
        <mxCell id="n27SO8hKBqy7ZoOVpC5h-139" style="edgeStyle=orthogonalEdgeStyle;rounded=0;orthogonalLoop=1;jettySize=auto;html=1;entryX=0.5;entryY=0;entryDx=0;entryDy=0;" edge="1" parent="n27SO8hKBqy7ZoOVpC5h-124" source="n27SO8hKBqy7ZoOVpC5h-136" target="n27SO8hKBqy7ZoOVpC5h-141">
          <mxGeometry relative="1" as="geometry">
            <mxPoint x="107.49999999999955" y="440" as="targetPoint" />
          </mxGeometry>
        </mxCell>
        <mxCell id="n27SO8hKBqy7ZoOVpC5h-136" value="Condições de trafegar?" style="rhombus;whiteSpace=wrap;html=1;rounded=1;" vertex="1" parent="n27SO8hKBqy7ZoOVpC5h-124">
          <mxGeometry x="52.499999999999545" y="280" width="110" height="110" as="geometry" />
        </mxCell>
        <mxCell id="n27SO8hKBqy7ZoOVpC5h-140" value="Sim" style="text;html=1;strokeColor=none;fillColor=none;align=center;verticalAlign=middle;whiteSpace=wrap;rounded=0;" vertex="1" parent="n27SO8hKBqy7ZoOVpC5h-124">
          <mxGeometry x="61.499999999999545" y="394" width="60" height="30" as="geometry" />
        </mxCell>
        <mxCell id="n27SO8hKBqy7ZoOVpC5h-141" value="Conduzir até a&lt;br&gt;oficina" style="whiteSpace=wrap;html=1;rounded=1;" vertex="1" parent="n27SO8hKBqy7ZoOVpC5h-124">
          <mxGeometry x="47.499999999999545" y="430" width="120" height="60" as="geometry" />
        </mxCell>
        <mxCell id="n27SO8hKBqy7ZoOVpC5h-144" value="Não" style="text;html=1;strokeColor=none;fillColor=none;align=center;verticalAlign=middle;whiteSpace=wrap;rounded=0;" vertex="1" parent="n27SO8hKBqy7ZoOVpC5h-124">
          <mxGeometry x="152.49999999999955" y="310" width="60" height="30" as="geometry" />
        </mxCell>
        <mxCell id="n27SO8hKBqy7ZoOVpC5h-166" style="edgeStyle=orthogonalEdgeStyle;rounded=0;orthogonalLoop=1;jettySize=auto;html=1;entryX=0.5;entryY=1;entryDx=0;entryDy=0;" edge="1" parent="n27SO8hKBqy7ZoOVpC5h-124" source="n27SO8hKBqy7ZoOVpC5h-162" target="n27SO8hKBqy7ZoOVpC5h-164">
          <mxGeometry relative="1" as="geometry" />
        </mxCell>
        <mxCell id="n27SO8hKBqy7ZoOVpC5h-162" value="Pagar a franquia" style="whiteSpace=wrap;html=1;rounded=1;" vertex="1" parent="n27SO8hKBqy7ZoOVpC5h-124">
          <mxGeometry x="47.499999999999545" y="780" width="120" height="60" as="geometry" />
        </mxCell>
        <mxCell id="n27SO8hKBqy7ZoOVpC5h-164" value="" style="ellipse;html=1;shape=endState;fillColor=#000000;strokeColor=#ff0000;" vertex="1" parent="n27SO8hKBqy7ZoOVpC5h-124">
          <mxGeometry x="92.49999999999955" y="670" width="30" height="30" as="geometry" />
        </mxCell>
        <mxCell id="n27SO8hKBqy7ZoOVpC5h-125" value="Polícia" style="swimlane;startSize=20;html=1;" vertex="1" parent="n27SO8hKBqy7ZoOVpC5h-123">
          <mxGeometry x="210" y="20" width="200" height="880" as="geometry" />
        </mxCell>
        <mxCell id="n27SO8hKBqy7ZoOVpC5h-132" value="Emitir boletim de ocorrência" style="whiteSpace=wrap;html=1;rounded=1;" vertex="1" parent="n27SO8hKBqy7ZoOVpC5h-125">
          <mxGeometry x="42.499999999999545" y="90" width="120" height="60" as="geometry" />
        </mxCell>
        <mxCell id="n27SO8hKBqy7ZoOVpC5h-126" value="Seguradora" style="swimlane;startSize=20;html=1;" vertex="1" parent="n27SO8hKBqy7ZoOVpC5h-123">
          <mxGeometry x="410" y="20" width="200" height="880" as="geometry" />
        </mxCell>
        <mxCell id="n27SO8hKBqy7ZoOVpC5h-142" value="Acionar o reboque" style="whiteSpace=wrap;html=1;rounded=1;" vertex="1" parent="n27SO8hKBqy7ZoOVpC5h-126">
          <mxGeometry x="37.499999999999545" y="305" width="120" height="60" as="geometry" />
        </mxCell>
        <mxCell id="n27SO8hKBqy7ZoOVpC5h-154" value="Depositar o valor do prêmio" style="whiteSpace=wrap;html=1;rounded=1;" vertex="1" parent="n27SO8hKBqy7ZoOVpC5h-126">
          <mxGeometry x="42.499999999999545" y="655" width="120" height="60" as="geometry" />
        </mxCell>
        <mxCell id="n27SO8hKBqy7ZoOVpC5h-161" value="Cobrar a franquia" style="whiteSpace=wrap;html=1;rounded=1;" vertex="1" parent="n27SO8hKBqy7ZoOVpC5h-126">
          <mxGeometry x="42.499999999999545" y="780" width="120" height="60" as="geometry" />
        </mxCell>
        <mxCell id="n27SO8hKBqy7ZoOVpC5h-133" style="edgeStyle=orthogonalEdgeStyle;rounded=0;orthogonalLoop=1;jettySize=auto;html=1;entryX=0;entryY=0.5;entryDx=0;entryDy=0;" edge="1" parent="n27SO8hKBqy7ZoOVpC5h-123" source="n27SO8hKBqy7ZoOVpC5h-79" target="n27SO8hKBqy7ZoOVpC5h-132">
          <mxGeometry relative="1" as="geometry" />
        </mxCell>
        <mxCell id="n27SO8hKBqy7ZoOVpC5h-135" style="edgeStyle=orthogonalEdgeStyle;rounded=0;orthogonalLoop=1;jettySize=auto;html=1;entryX=1;entryY=0.5;entryDx=0;entryDy=0;" edge="1" parent="n27SO8hKBqy7ZoOVpC5h-123" source="n27SO8hKBqy7ZoOVpC5h-132" target="n27SO8hKBqy7ZoOVpC5h-134">
          <mxGeometry relative="1" as="geometry">
            <Array as="points">
              <mxPoint x="312.5" y="240" />
            </Array>
          </mxGeometry>
        </mxCell>
        <mxCell id="n27SO8hKBqy7ZoOVpC5h-143" style="edgeStyle=orthogonalEdgeStyle;rounded=0;orthogonalLoop=1;jettySize=auto;html=1;entryX=0;entryY=0.5;entryDx=0;entryDy=0;" edge="1" parent="n27SO8hKBqy7ZoOVpC5h-123" source="n27SO8hKBqy7ZoOVpC5h-136" target="n27SO8hKBqy7ZoOVpC5h-142">
          <mxGeometry relative="1" as="geometry">
            <mxPoint x="465.49999999999955" y="355" as="targetPoint" />
          </mxGeometry>
        </mxCell>
        <mxCell id="n27SO8hKBqy7ZoOVpC5h-146" style="edgeStyle=orthogonalEdgeStyle;rounded=0;orthogonalLoop=1;jettySize=auto;html=1;entryX=0;entryY=0.5;entryDx=0;entryDy=0;" edge="1" parent="n27SO8hKBqy7ZoOVpC5h-123" source="n27SO8hKBqy7ZoOVpC5h-142" target="n27SO8hKBqy7ZoOVpC5h-145">
          <mxGeometry relative="1" as="geometry" />
        </mxCell>
        <mxCell id="n27SO8hKBqy7ZoOVpC5h-150" style="edgeStyle=orthogonalEdgeStyle;rounded=0;orthogonalLoop=1;jettySize=auto;html=1;entryX=0;entryY=0.5;entryDx=0;entryDy=0;" edge="1" parent="n27SO8hKBqy7ZoOVpC5h-123" source="n27SO8hKBqy7ZoOVpC5h-141" target="n27SO8hKBqy7ZoOVpC5h-149">
          <mxGeometry relative="1" as="geometry">
            <Array as="points">
              <mxPoint x="107.5" y="580" />
            </Array>
          </mxGeometry>
        </mxCell>
        <mxCell id="n27SO8hKBqy7ZoOVpC5h-151" style="edgeStyle=orthogonalEdgeStyle;rounded=0;orthogonalLoop=1;jettySize=auto;html=1;entryX=0.5;entryY=0;entryDx=0;entryDy=0;" edge="1" parent="n27SO8hKBqy7ZoOVpC5h-123" source="n27SO8hKBqy7ZoOVpC5h-147" target="n27SO8hKBqy7ZoOVpC5h-149">
          <mxGeometry relative="1" as="geometry" />
        </mxCell>
        <mxCell id="n27SO8hKBqy7ZoOVpC5h-155" style="edgeStyle=orthogonalEdgeStyle;rounded=0;orthogonalLoop=1;jettySize=auto;html=1;entryX=1;entryY=0.5;entryDx=0;entryDy=0;" edge="1" parent="n27SO8hKBqy7ZoOVpC5h-123" source="n27SO8hKBqy7ZoOVpC5h-152" target="n27SO8hKBqy7ZoOVpC5h-154">
          <mxGeometry relative="1" as="geometry" />
        </mxCell>
        <mxCell id="n27SO8hKBqy7ZoOVpC5h-160" style="edgeStyle=orthogonalEdgeStyle;rounded=0;orthogonalLoop=1;jettySize=auto;html=1;entryX=1;entryY=0.5;entryDx=0;entryDy=0;" edge="1" parent="n27SO8hKBqy7ZoOVpC5h-123" source="n27SO8hKBqy7ZoOVpC5h-157" target="n27SO8hKBqy7ZoOVpC5h-161">
          <mxGeometry relative="1" as="geometry">
            <mxPoint x="595.4999999999995" y="830" as="targetPoint" />
          </mxGeometry>
        </mxCell>
        <mxCell id="n27SO8hKBqy7ZoOVpC5h-163" style="edgeStyle=orthogonalEdgeStyle;rounded=0;orthogonalLoop=1;jettySize=auto;html=1;entryX=1;entryY=0.5;entryDx=0;entryDy=0;" edge="1" parent="n27SO8hKBqy7ZoOVpC5h-123" source="n27SO8hKBqy7ZoOVpC5h-161" target="n27SO8hKBqy7ZoOVpC5h-162">
          <mxGeometry relative="1" as="geometry" />
        </mxCell>
        <mxCell id="n27SO8hKBqy7ZoOVpC5h-165" style="edgeStyle=orthogonalEdgeStyle;rounded=0;orthogonalLoop=1;jettySize=auto;html=1;entryX=1;entryY=0.5;entryDx=0;entryDy=0;" edge="1" parent="n27SO8hKBqy7ZoOVpC5h-123" source="n27SO8hKBqy7ZoOVpC5h-154" target="n27SO8hKBqy7ZoOVpC5h-164">
          <mxGeometry relative="1" as="geometry" />
        </mxCell>
        <mxCell id="n27SO8hKBqy7ZoOVpC5h-127" value="Reboque" style="swimlane;startSize=20;html=1;" vertex="1" parent="n27SO8hKBqy7ZoOVpC5h-123">
          <mxGeometry x="610" y="20" width="200" height="880" as="geometry" />
        </mxCell>
        <mxCell id="n27SO8hKBqy7ZoOVpC5h-148" value="" style="edgeStyle=orthogonalEdgeStyle;rounded=0;orthogonalLoop=1;jettySize=auto;html=1;" edge="1" parent="n27SO8hKBqy7ZoOVpC5h-127" source="n27SO8hKBqy7ZoOVpC5h-145" target="n27SO8hKBqy7ZoOVpC5h-147">
          <mxGeometry relative="1" as="geometry" />
        </mxCell>
        <mxCell id="n27SO8hKBqy7ZoOVpC5h-145" value="Recolher o automóvel&amp;nbsp;" style="whiteSpace=wrap;html=1;rounded=1;" vertex="1" parent="n27SO8hKBqy7ZoOVpC5h-127">
          <mxGeometry x="42.499999999999545" y="305" width="120" height="60" as="geometry" />
        </mxCell>
        <mxCell id="n27SO8hKBqy7ZoOVpC5h-147" value="Conduzir até a&lt;br&gt;oficina" style="whiteSpace=wrap;html=1;rounded=1;" vertex="1" parent="n27SO8hKBqy7ZoOVpC5h-127">
          <mxGeometry x="42.499999999999545" y="430" width="120" height="60" as="geometry" />
        </mxCell>
        <mxCell id="n27SO8hKBqy7ZoOVpC5h-128" value="Oficina" style="swimlane;startSize=20;html=1;" vertex="1" parent="n27SO8hKBqy7ZoOVpC5h-123">
          <mxGeometry x="810" y="20" width="200" height="880" as="geometry" />
        </mxCell>
        <mxCell id="n27SO8hKBqy7ZoOVpC5h-153" style="edgeStyle=orthogonalEdgeStyle;rounded=0;orthogonalLoop=1;jettySize=auto;html=1;" edge="1" parent="n27SO8hKBqy7ZoOVpC5h-128" source="n27SO8hKBqy7ZoOVpC5h-149" target="n27SO8hKBqy7ZoOVpC5h-152">
          <mxGeometry relative="1" as="geometry" />
        </mxCell>
        <mxCell id="n27SO8hKBqy7ZoOVpC5h-149" value="Avaliar os danos" style="whiteSpace=wrap;html=1;rounded=1;" vertex="1" parent="n27SO8hKBqy7ZoOVpC5h-128">
          <mxGeometry x="42.499999999999545" y="530" width="120" height="60" as="geometry" />
        </mxCell>
        <mxCell id="n27SO8hKBqy7ZoOVpC5h-158" value="" style="edgeStyle=orthogonalEdgeStyle;rounded=0;orthogonalLoop=1;jettySize=auto;html=1;" edge="1" parent="n27SO8hKBqy7ZoOVpC5h-128" source="n27SO8hKBqy7ZoOVpC5h-152" target="n27SO8hKBqy7ZoOVpC5h-157">
          <mxGeometry relative="1" as="geometry" />
        </mxCell>
        <mxCell id="n27SO8hKBqy7ZoOVpC5h-152" value="Houve perda&lt;br&gt;total?" style="rhombus;whiteSpace=wrap;html=1;rounded=1;" vertex="1" parent="n27SO8hKBqy7ZoOVpC5h-128">
          <mxGeometry x="47.499999999999545" y="630" width="110" height="110" as="geometry" />
        </mxCell>
        <mxCell id="n27SO8hKBqy7ZoOVpC5h-156" value="Sim" style="text;html=1;strokeColor=none;fillColor=none;align=center;verticalAlign=middle;whiteSpace=wrap;rounded=0;" vertex="1" parent="n27SO8hKBqy7ZoOVpC5h-128">
          <mxGeometry x="-4.500000000000455" y="660" width="60" height="30" as="geometry" />
        </mxCell>
        <mxCell id="n27SO8hKBqy7ZoOVpC5h-157" value="Consertar o automóvel" style="whiteSpace=wrap;html=1;rounded=1;" vertex="1" parent="n27SO8hKBqy7ZoOVpC5h-128">
          <mxGeometry x="42.499999999999545" y="780" width="120" height="60" as="geometry" />
        </mxCell>
        <mxCell id="n27SO8hKBqy7ZoOVpC5h-159" value="Não" style="text;html=1;strokeColor=none;fillColor=none;align=center;verticalAlign=middle;whiteSpace=wrap;rounded=0;" vertex="1" parent="n27SO8hKBqy7ZoOVpC5h-128">
          <mxGeometry x="55.499999999999545" y="740" width="60" height="30" as="geometry" />
        </mxCell>
        <mxCell id="n27SO8hKBqy7ZoOVpC5h-202" value="SISTEMA PARA CONTROLE DE EXPERIMENTAÇÃO ANIMAL" style="swimlane;childLayout=stackLayout;resizeParent=1;resizeParentMax=0;startSize=20;html=1;" vertex="1" parent="1">
          <mxGeometry x="1020" y="1250" width="800" height="250" as="geometry" />
        </mxCell>
        <mxCell id="n27SO8hKBqy7ZoOVpC5h-203" value="Docente" style="swimlane;startSize=20;html=1;" vertex="1" parent="n27SO8hKBqy7ZoOVpC5h-202">
          <mxGeometry y="20" width="200" height="230" as="geometry">
            <mxRectangle y="20" width="40" height="460" as="alternateBounds" />
          </mxGeometry>
        </mxCell>
        <mxCell id="n27SO8hKBqy7ZoOVpC5h-207" value="" style="ellipse;html=1;shape=startState;fillColor=#000000;strokeColor=#ff0000;" vertex="1" parent="n27SO8hKBqy7ZoOVpC5h-203">
          <mxGeometry x="85" y="40" width="30" height="30" as="geometry" />
        </mxCell>
        <mxCell id="n27SO8hKBqy7ZoOVpC5h-210" value="Emitir protocolo" style="rounded=1;whiteSpace=wrap;html=1;" vertex="1" parent="n27SO8hKBqy7ZoOVpC5h-203">
          <mxGeometry x="40" y="95" width="120" height="60" as="geometry" />
        </mxCell>
        <mxCell id="n27SO8hKBqy7ZoOVpC5h-208" value="" style="edgeStyle=orthogonalEdgeStyle;html=1;verticalAlign=bottom;endArrow=open;endSize=8;strokeColor=#ff0000;rounded=0;entryX=0.5;entryY=0;entryDx=0;entryDy=0;" edge="1" source="n27SO8hKBqy7ZoOVpC5h-207" parent="n27SO8hKBqy7ZoOVpC5h-203" target="n27SO8hKBqy7ZoOVpC5h-210">
          <mxGeometry relative="1" as="geometry">
            <mxPoint x="120" y="65" as="targetPoint" />
          </mxGeometry>
        </mxCell>
        <mxCell id="n27SO8hKBqy7ZoOVpC5h-204" value="Secretária" style="swimlane;startSize=20;html=1;" vertex="1" parent="n27SO8hKBqy7ZoOVpC5h-202">
          <mxGeometry x="200" y="20" width="200" height="230" as="geometry" />
        </mxCell>
        <mxCell id="n27SO8hKBqy7ZoOVpC5h-211" value="Enviar protocolo" style="whiteSpace=wrap;html=1;rounded=1;" vertex="1" parent="n27SO8hKBqy7ZoOVpC5h-204">
          <mxGeometry x="40" y="95" width="120" height="60" as="geometry" />
        </mxCell>
        <mxCell id="n27SO8hKBqy7ZoOVpC5h-205" value="Parecerista" style="swimlane;startSize=20;html=1;" vertex="1" parent="n27SO8hKBqy7ZoOVpC5h-202">
          <mxGeometry x="400" y="20" width="200" height="230" as="geometry" />
        </mxCell>
        <mxCell id="n27SO8hKBqy7ZoOVpC5h-215" value="Emitir parecer" style="whiteSpace=wrap;html=1;rounded=1;" vertex="1" parent="n27SO8hKBqy7ZoOVpC5h-205">
          <mxGeometry x="42" y="95" width="120" height="60" as="geometry" />
        </mxCell>
        <mxCell id="n27SO8hKBqy7ZoOVpC5h-212" value="" style="edgeStyle=orthogonalEdgeStyle;rounded=0;orthogonalLoop=1;jettySize=auto;html=1;" edge="1" parent="n27SO8hKBqy7ZoOVpC5h-202" source="n27SO8hKBqy7ZoOVpC5h-210" target="n27SO8hKBqy7ZoOVpC5h-211">
          <mxGeometry relative="1" as="geometry" />
        </mxCell>
        <mxCell id="n27SO8hKBqy7ZoOVpC5h-219" value="Presidente" style="swimlane;startSize=20;html=1;" vertex="1" parent="n27SO8hKBqy7ZoOVpC5h-202">
          <mxGeometry x="600" y="20" width="200" height="230" as="geometry">
            <mxRectangle y="20" width="40" height="460" as="alternateBounds" />
          </mxGeometry>
        </mxCell>
        <mxCell id="n27SO8hKBqy7ZoOVpC5h-226" style="edgeStyle=orthogonalEdgeStyle;rounded=0;orthogonalLoop=1;jettySize=auto;html=1;entryX=0.5;entryY=0;entryDx=0;entryDy=0;" edge="1" parent="n27SO8hKBqy7ZoOVpC5h-219" source="n27SO8hKBqy7ZoOVpC5h-217" target="n27SO8hKBqy7ZoOVpC5h-224">
          <mxGeometry relative="1" as="geometry" />
        </mxCell>
        <mxCell id="n27SO8hKBqy7ZoOVpC5h-217" value="Deliberar decisão" style="whiteSpace=wrap;html=1;rounded=1;" vertex="1" parent="n27SO8hKBqy7ZoOVpC5h-219">
          <mxGeometry x="40" y="95" width="120" height="60" as="geometry" />
        </mxCell>
        <mxCell id="n27SO8hKBqy7ZoOVpC5h-224" value="" style="ellipse;html=1;shape=endState;fillColor=#000000;strokeColor=#ff0000;" vertex="1" parent="n27SO8hKBqy7ZoOVpC5h-219">
          <mxGeometry x="85" y="180" width="30" height="30" as="geometry" />
        </mxCell>
        <mxCell id="n27SO8hKBqy7ZoOVpC5h-222" style="edgeStyle=orthogonalEdgeStyle;rounded=0;orthogonalLoop=1;jettySize=auto;html=1;entryX=0;entryY=0.5;entryDx=0;entryDy=0;" edge="1" parent="n27SO8hKBqy7ZoOVpC5h-202" source="n27SO8hKBqy7ZoOVpC5h-211" target="n27SO8hKBqy7ZoOVpC5h-215">
          <mxGeometry relative="1" as="geometry" />
        </mxCell>
        <mxCell id="n27SO8hKBqy7ZoOVpC5h-223" style="edgeStyle=orthogonalEdgeStyle;rounded=0;orthogonalLoop=1;jettySize=auto;html=1;entryX=0;entryY=0.5;entryDx=0;entryDy=0;" edge="1" parent="n27SO8hKBqy7ZoOVpC5h-202" source="n27SO8hKBqy7ZoOVpC5h-215" target="n27SO8hKBqy7ZoOVpC5h-217">
          <mxGeometry relative="1" as="geometry" />
        </mxCell>
        <mxCell id="n27SO8hKBqy7ZoOVpC5h-206" value="SISTEMA PARA CONTROLE DE EXPERIMENTAÇÃO ANIMAL" style="text;html=1;strokeColor=none;fillColor=none;align=center;verticalAlign=middle;whiteSpace=wrap;rounded=0;" vertex="1" parent="1">
          <mxGeometry x="1245" y="1180" width="350" height="30" as="geometry" />
        </mxCell>
      </root>
    </mxGraphModel>
  </diagram>
</mxfile>
